<svg width="74" height="50" viewBox="0 0 74 50" fill="none" xmlns="http://www.w3.org/2000/svg">
<rect x="0.5" y="0.5" width="73" height="49" stroke="black"/>
<path d="M6.72494 18.0961C9.12494 4.49611 28.7249 4.09612 38.2249 5.59612L54.2266 18.0961L67.7266 5.59612V44.5957H61.2266V23.5957L54.2266 29.5957L38.2249 5.59612V10.5957H32.7266C15.5266 8.5957 11.8932 18.429 12.2266 23.5957C11.0266 39.1957 25.3932 40.7624 32.7266 39.5957V13.0957H38.2249V44.5957H22.7249C10.2249 42.5957 3.72494 35.0961 6.72494 18.0961Z" fill="black"/>
<path d="M38.2249 5.59612C28.7249 4.09612 9.12494 4.49611 6.72494 18.0961C3.72494 35.0961 10.2249 42.5957 22.7249 44.5957H38.2249V13.0957H32.7266V39.5957C25.3932 40.7624 11.0266 39.1957 12.2266 23.5957C11.8932 18.429 15.5266 8.5957 32.7266 10.5957H38.2249V5.59612ZM38.2249 5.59612L54.2266 18.0961L67.7266 5.59612V44.5957H61.2266V23.5957L54.2266 29.5957L38.2249 5.59612Z" stroke="black"/>
</svg>
